<?xml version="1.0" encoding="utf-8"?>
<!-- Generator: Adobe Illustrator 24.1.2, SVG Export Plug-In . SVG Version: 6.00 Build 0)  -->
<svg version="1.1" id="Ebene_1" xmlns="http://www.w3.org/2000/svg" xmlns:xlink="http://www.w3.org/1999/xlink" x="0px" y="0px"
	 viewBox="0 0 128 120.90265" style="enable-background:new 0 0 128 120.90265;" xml:space="preserve">
<style type="text/css">
	.st0{fill:#FFFFFF;}
</style>
<g>
	<g>
		<path class="st0" d="M0,60.45132C0,25.21536,27.05315,0,63.45668,0c20.20588,0,37.07212,7.34789,48.09395,20.70651
			L94.18378,36.73782c-7.84851-9.01772-17.70114-13.69291-29.39156-13.69291c-21.87571,0-37.40641,15.36273-37.40641,37.40641
			c0,22.04204,15.53069,37.4064,37.40641,37.4064c11.69042,0,21.54305-4.67682,29.39156-13.86086l17.36685,16.03131
			c-11.02184,13.52658-27.88807,20.87447-48.26028,20.87447C27.05315,120.90265,0,95.68728,0,60.45132z"/>
	</g>
	<path class="st0" d="M128,60.45132c0.0002-0.24318-0.01488-0.47983-0.05055-0.72281
		c-0.03751-0.25581-0.09723-0.49981-0.17367-0.74686c-0.03914-0.12658-0.03934-0.25826-0.08887-0.3828
		c-0.04097-0.10294-0.11659-0.18121-0.16368-0.28007c-0.10925-0.23095-0.23971-0.44416-0.38464-0.65778
		c-0.14249-0.20934-0.28965-0.40543-0.46006-0.58908c-0.07562-0.08194-0.12128-0.18284-0.20322-0.2603l-16.58412-15.68398
		l-6.88477,7.2794l7.43921,7.0348h-41.7897V65.4608h41.7897l-7.43921,7.03481l6.88477,7.2794l16.58412-15.68398
		c0.08194-0.07746,0.1276-0.17836,0.20322-0.2603c0.17041-0.18366,0.31757-0.37975,0.46006-0.58909
		c0.14493-0.21362,0.27538-0.42683,0.38464-0.65778c0.04709-0.09886,0.12271-0.17714,0.16368-0.28007
		c0.04953-0.12454,0.04974-0.25622,0.08887-0.3828c0.07644-0.24705,0.13616-0.49104,0.17367-0.74686
		C127.98512,60.93115,128.0002,60.6945,128,60.45132z"/>
</g>
</svg>
