<?xml version="1.0" encoding="utf-8"?>
<!-- Generator: Adobe Illustrator 24.1.2, SVG Export Plug-In . SVG Version: 6.00 Build 0)  -->
<svg version="1.1" id="Ebene_1" xmlns="http://www.w3.org/2000/svg" xmlns:xlink="http://www.w3.org/1999/xlink" x="0px" y="0px"
	 viewBox="0 0 128 128" style="enable-background:new 0 0 128 128;" xml:space="preserve">
<style type="text/css">
	.st0{fill:#FFFFFF;}
</style>
<path class="st0" d="M63.99914,0c-0.08718,0-0.16984,0.01165-0.25702,0.01187C63.65925,0.01165,63.58134,0,63.49826,0
	C27.07086,0,0,26.69386,0,63.99827S27.07086,128,63.33187,128c0.11114,0,0.21494-0.01532,0.32586-0.01575
	C63.77341,127.98468,63.88325,128,63.99914,128C100.76254,128,128,100.9505,128,63.99827C128,27.0495,100.76254,0,63.99914,0z
	 M64.40981,103.58242c-20.29834-0.19918-35.04906-14.42291-36.82555-35.2899c-0.11869-1.40163-0.18041-2.83327-0.18041-4.29425
	c0-1.46076,0.06172-2.8924,0.18041-4.29381c1.77627-20.86677,16.52699-35.0877,36.82555-35.28688
	c20.67989,0.21256,36.18484,16.22357,36.18484,39.5807S85.08969,103.36986,64.40981,103.58242z M96.04424,90.68458
	c5.05279-7.19031,7.98769-16.33385,7.98769-26.68631c0-10.40252-2.96166-19.58577-8.06042-26.79118l14.08347-13.75307
	c9.13598,10.50719,14.50751,24.49829,14.50751,40.54425c0,15.99784-5.33721,29.95463-14.42205,40.45168L96.04424,90.68458z"/>
</svg>
