<?xml version="1.0" encoding="utf-8"?>
<!-- Generator: Adobe Illustrator 24.1.2, SVG Export Plug-In . SVG Version: 6.00 Build 0)  -->
<svg version="1.1" id="Ebene_1" xmlns="http://www.w3.org/2000/svg" xmlns:xlink="http://www.w3.org/1999/xlink" x="0px" y="0px"
	 viewBox="0 0 128 128" style="enable-background:new 0 0 128 128;" xml:space="preserve">
<style type="text/css">
	.st0{fill:#1B834B;}
	.st1{opacity:0.5;fill:#1B834B;}
</style>
<g>
	<path class="st0" d="M70.45109,103.00792c-1.95992,0.33082-3.96494,0.55331-6.03923,0.57468
		c-20.29903-0.19832-35.05085-14.42165-36.82777-35.28867c-0.11588-1.37142-0.17394-2.77371-0.17653-4.2021
		c0-0.03172-0.00389-0.06151-0.00389-0.09323c0-1.46141,0.0615-2.8937,0.18041-4.29555
		c1.77692-20.86508,16.52658-35.08495,36.82345-35.28522c2.07581,0.02115,4.08234,0.24364,6.04355,0.57468
		c9.57796,1.61679,17.64703,6.83511,23.02677,14.63098l18.96386-18.51866c-2.93362-3.33501-6.21144-6.35063-9.81988-8.97156
		C92.05551,4.45848,78.82639,0.00022,63.99903,0.00022c-0.08632,0-0.16854,0.01165-0.25486,0.01187
		C63.66043,0.01187,63.5821,0,63.49815,0C27.07069,0,0,26.6939,0,63.99838v0.00021c0,0.00539,0.00065,0.01057,0.00065,0.01597
		c0.00777,37.29607,27.07544,63.98565,63.33112,63.98565c0.11114,0,0.21494-0.01532,0.32586-0.01575
		c0.11567,0.00043,0.22573,0.01575,0.3414,0.01575c10.32637,0,19.85858-2.19924,28.28912-6.08736
		c7.80104-3.59785,14.60831-8.70741,20.14624-14.99697L93.4511,88.41168C88.07114,96.18726,80.01373,101.39328,70.45109,103.00792z"
		/>
	<path class="st1" d="M125.38059,44.93741c-2.59265-9.06931-7.0384-17.12436-12.93887-23.83258L93.47786,39.62349
		c4.4928,6.51054,7.11674,14.81247,7.11674,24.3751c0,0.56195-0.04424,1.10189-0.06215,1.65499
		c-0.03259,1.01276-0.08266,2.01559-0.17372,2.99815c-0.70697,7.63293-3.14726,14.32497-6.90762,19.75995l18.98328,18.5042
		c8.93443-10.14682,14.51768-23.40076,15.41994-38.54815C127.94022,66.92596,128,65.47339,128,63.9986
		C128,57.27657,127.08327,50.89334,125.38059,44.93741z"/>
</g>
</svg>
